<svg version="1.1" id="Layer_1" xmlns="http://www.w3.org/2000/svg" xmlns:xlink="http://www.w3.org/1999/xlink" x="0px" y="0px"
	 width="100%" viewBox="0 0 2000 1500" enable-background="new 0 0 2000 1500" xml:space="preserve">
<path fill="#000000" opacity="1.000000" stroke="none" 
	d="
M1055.000000,1501.000000 
	C703.333435,1501.000000 352.166870,1501.000000 1.000236,1501.000000 
	C1.000157,1001.000244 1.000157,501.000519 1.000079,1.000571 
	C667.666199,1.000381 1334.332397,1.000381 2000.999023,1.000190 
	C2000.999268,500.999390 2000.999268,1000.998779 2000.999634,1500.999023 
	C1685.833374,1501.000000 1370.666626,1501.000000 1055.000000,1501.000000 
M879.035034,567.580017 
	C884.017029,552.803711 888.114563,537.655029 894.147827,523.321167 
	C911.838379,481.291412 940.582642,449.729736 984.302795,434.063416 
	C1029.198120,417.976013 1075.115112,417.872711 1121.058960,428.782104 
	C1162.090698,438.525116 1186.707031,464.581879 1194.418579,506.310638 
	C1199.314209,532.801147 1197.318115,559.452698 1196.475342,586.071045 
	C1196.092407,598.163025 1195.187134,610.238464 1194.495239,622.745972 
	C1256.018433,619.209045 1316.770752,615.716370 1377.568359,612.221130 
	C1378.504395,598.540894 1379.000732,585.551147 1380.349976,572.650696 
	C1384.367676,534.235352 1387.855713,495.734772 1393.175415,457.493530 
	C1398.972900,415.818451 1405.771851,374.236481 1413.847778,332.949097 
	C1416.766968,318.025269 1417.285522,304.927002 1409.382690,291.729797 
	C1407.709351,288.935364 1406.063232,287.632904 1403.162231,287.087952 
	C1392.048950,285.000275 1380.945679,282.857635 1369.847656,280.690002 
	C1302.813599,267.597015 1235.344604,257.505798 1167.180420,252.799011 
	C1107.839233,248.701447 1048.639648,250.161575 989.822876,260.003815 
	C942.558411,267.912903 896.814026,280.918365 853.249695,301.080933 
	C739.776001,353.599182 662.486755,439.442230 619.263489,556.285095 
	C599.735291,609.074402 589.601318,663.906616 585.835205,719.988892 
	C582.037292,776.545288 583.680237,832.853149 592.896729,888.868652 
	C602.481873,947.124573 620.541077,1002.429199 650.057434,1053.749390 
	C692.308167,1127.210693 752.506531,1180.592407 830.250549,1214.173950 
	C884.714783,1237.699829 942.005615,1248.684204 1000.992004,1250.708618 
	C1061.721680,1252.792847 1122.245361,1249.450195 1182.292603,1239.732056 
	C1239.633301,1230.451904 1296.180664,1217.714111 1351.758545,1200.627686 
	C1362.937622,1197.190796 1372.226074,1192.544678 1378.206299,1182.268433 
	C1379.367432,1180.273193 1381.360352,1178.741943 1382.410767,1176.708008 
	C1383.639038,1174.329468 1384.907471,1171.667236 1385.036133,1169.072388 
	C1386.340210,1142.780029 1386.883301,1116.439941 1388.687866,1090.185059 
	C1390.960449,1057.125000 1393.920410,1024.104004 1397.128784,991.119080 
	C1399.901001,962.618164 1403.397827,934.187195 1406.653442,905.734314 
	C1407.761719,896.049316 1409.110352,886.391846 1410.406860,876.271240 
	C1397.549683,877.165161 1385.297241,878.064575 1373.038086,878.860962 
	C1325.659424,881.938965 1278.279785,885.000732 1230.895630,887.992432 
	C1228.512085,888.142822 1227.344849,888.724670 1227.026489,891.310486 
	C1226.173096,898.244751 1225.162476,905.166199 1223.975952,912.051697 
	C1218.655640,942.926636 1211.364746,973.239502 1198.125977,1001.843018 
	C1186.178467,1027.656616 1169.600952,1049.465210 1144.472290,1063.835693 
	C1124.394531,1075.317627 1102.500854,1080.356567 1079.614502,1081.501343 
	C1028.786133,1084.044067 983.879822,1070.193359 947.540527,1033.168579 
	C920.980347,1006.107544 904.172424,973.263855 892.071655,937.818726 
	C873.454834,883.287292 866.650146,826.721558 864.033569,769.508728 
	C862.005920,725.176331 862.016174,680.821838 867.258484,636.716675 
	C869.981689,613.805359 874.942078,591.159912 879.035034,567.580017 
z"/>
<path fill="#FFFFFF" opacity="1.000000" stroke="none" 
	d="
M878.963440,567.987183 
	C874.942078,591.159912 869.981689,613.805359 867.258484,636.716675 
	C862.016174,680.821838 862.005920,725.176331 864.033569,769.508728 
	C866.650146,826.721558 873.454834,883.287292 892.071655,937.818726 
	C904.172424,973.263855 920.980347,1006.107544 947.540527,1033.168579 
	C983.879822,1070.193359 1028.786133,1084.044067 1079.614502,1081.501343 
	C1102.500854,1080.356567 1124.394531,1075.317627 1144.472290,1063.835693 
	C1169.600952,1049.465210 1186.178467,1027.656616 1198.125977,1001.843018 
	C1211.364746,973.239502 1218.655640,942.926636 1223.975952,912.051697 
	C1225.162476,905.166199 1226.173096,898.244751 1227.026489,891.310486 
	C1227.344849,888.724670 1228.512085,888.142822 1230.895630,887.992432 
	C1278.279785,885.000732 1325.659424,881.938965 1373.038086,878.860962 
	C1385.297241,878.064575 1397.549683,877.165161 1410.406860,876.271240 
	C1409.110352,886.391846 1407.761719,896.049316 1406.653442,905.734314 
	C1403.397827,934.187195 1399.901001,962.618164 1397.128784,991.119080 
	C1393.920410,1024.104004 1390.960449,1057.125000 1388.687866,1090.185059 
	C1386.883301,1116.439941 1386.340210,1142.780029 1385.036133,1169.072388 
	C1384.907471,1171.667236 1383.639038,1174.329468 1382.410767,1176.708008 
	C1381.360352,1178.741943 1379.367432,1180.273193 1378.206299,1182.268433 
	C1372.226074,1192.544678 1362.937622,1197.190796 1351.758545,1200.627686 
	C1296.180664,1217.714111 1239.633301,1230.451904 1182.292603,1239.732056 
	C1122.245361,1249.450195 1061.721680,1252.792847 1000.992004,1250.708618 
	C942.005615,1248.684204 884.714783,1237.699829 830.250549,1214.173950 
	C752.506531,1180.592407 692.308167,1127.210693 650.057434,1053.749390 
	C620.541077,1002.429199 602.481873,947.124573 592.896729,888.868652 
	C583.680237,832.853149 582.037292,776.545288 585.835205,719.988892 
	C589.601318,663.906616 599.735291,609.074402 619.263489,556.285095 
	C662.486755,439.442230 739.776001,353.599182 853.249695,301.080933 
	C896.814026,280.918365 942.558411,267.912903 989.822876,260.003815 
	C1048.639648,250.161575 1107.839233,248.701447 1167.180420,252.799011 
	C1235.344604,257.505798 1302.813599,267.597015 1369.847656,280.690002 
	C1380.945679,282.857635 1392.048950,285.000275 1403.162231,287.087952 
	C1406.063232,287.632904 1407.709351,288.935364 1409.382690,291.729797 
	C1417.285522,304.927002 1416.766968,318.025269 1413.847778,332.949097 
	C1405.771851,374.236481 1398.972900,415.818451 1393.175415,457.493530 
	C1387.855713,495.734772 1384.367676,534.235352 1380.349976,572.650696 
	C1379.000732,585.551147 1378.504395,598.540894 1377.568359,612.221130 
	C1316.770752,615.716370 1256.018433,619.209045 1194.495239,622.745972 
	C1195.187134,610.238464 1196.092407,598.163025 1196.475342,586.071045 
	C1197.318115,559.452698 1199.314209,532.801147 1194.418579,506.310638 
	C1186.707031,464.581879 1162.090698,438.525116 1121.058960,428.782104 
	C1075.115112,417.872711 1029.198120,417.976013 984.302795,434.063416 
	C940.582642,449.729736 911.838379,481.291412 894.147827,523.321167 
	C888.114563,537.655029 884.017029,552.803711 878.963440,567.987183 
z"/>
</svg>