<svg version="1.1" id="Layer_1" xmlns="http://www.w3.org/2000/svg" xmlns:xlink="http://www.w3.org/1999/xlink" x="0px" y="0px"
	 width="100%" viewBox="0 0 2000 1500" enable-background="new 0 0 2000 1500" xml:space="preserve">
<path fill="#000000" opacity="1.000000" stroke="none" 
	d="
M1046.000000,1501.000000 
	C697.333435,1501.000000 349.166870,1501.000000 1.000234,1501.000000 
	C1.000156,1001.000244 1.000156,501.000519 1.000078,1.000569 
	C667.666199,1.000379 1334.332397,1.000379 2000.999023,1.000190 
	C2000.999268,500.999390 2000.999268,1000.998779 2000.999634,1500.999023 
	C1682.833374,1501.000000 1364.666626,1501.000000 1046.000000,1501.000000 
M981.115723,1250.382202 
	C1032.588867,1252.506470 1083.184814,1246.832153 1132.861328,1233.174927 
	C1338.560913,1176.623291 1486.026733,996.276733 1499.765991,784.227783 
	C1504.822388,706.189026 1492.393677,630.959595 1462.487793,558.636475 
	C1376.715820,351.210327 1161.269897,226.721039 936.825806,255.214035 
	C877.512024,262.743896 821.379639,280.677155 768.387329,308.494781 
	C623.154785,384.732697 524.338196,528.124512 504.777283,691.186096 
	C496.304382,761.817078 502.410004,831.185852 523.482300,899.082031 
	C586.164795,1101.048340 768.987183,1241.528076 981.115723,1250.382202 
z"/>
<path fill="#BB09FE" opacity="1.000000" stroke="none" 
	d="
M980.644897,1250.351562 
	C768.987183,1241.528076 586.164795,1101.048340 523.482300,899.082031 
	C502.410004,831.185852 496.304382,761.817078 504.777283,691.186096 
	C524.338196,528.124512 623.154785,384.732697 768.387329,308.494781 
	C821.379639,280.677155 877.512024,262.743896 936.825806,255.214035 
	C1161.269897,226.721039 1376.715820,351.210327 1462.487793,558.636475 
	C1492.393677,630.959595 1504.822388,706.189026 1499.765991,784.227783 
	C1486.026733,996.276733 1338.560913,1176.623291 1132.861328,1233.174927 
	C1083.184814,1246.832153 1032.588867,1252.506470 980.644897,1250.351562 
M958.114563,470.639191 
	C927.705139,477.482941 899.523010,489.769928 873.949768,507.359436 
	C800.470642,557.898926 760.216064,628.637695 750.013672,716.553223 
	C742.373352,782.391235 755.422913,844.485046 787.987488,902.267090 
	C851.799500,1015.494202 982.659302,1065.695068 1104.230347,1022.823425 
	C1176.709595,997.263855 1226.654419,948.147034 1252.468506,875.256714 
	C1252.937500,873.932556 1253.188110,872.530945 1253.635498,870.798279 
	C1214.402466,859.816467 1175.552979,848.942017 1136.997681,838.149963 
	C1133.195435,845.178711 1129.989868,851.968262 1125.991455,858.253479 
	C1121.982422,864.555359 1117.628784,870.754211 1112.652832,876.304871 
	C1089.451172,902.186584 1061.175903,919.141296 1025.989258,921.819031 
	C978.940613,925.399536 941.040466,906.888000 911.993469,870.584412 
	C860.992310,806.841736 858.419617,706.526123 905.746948,639.623535 
	C932.256653,602.149170 967.414856,579.428284 1014.610718,578.777344 
	C1041.537964,578.405884 1066.909546,583.987122 1089.133667,600.117249 
	C1103.348877,610.434570 1114.136719,624.026184 1124.195190,638.180908 
	C1126.708740,641.717957 1129.326538,642.947266 1133.622681,642.923462 
	C1167.115356,642.737854 1200.609741,642.820862 1234.103516,642.820862 
	C1236.049561,642.820862 1237.995605,642.820862 1240.103516,642.820862 
	C1240.103516,601.383850 1240.103516,560.519958 1240.103516,519.324036 
	C1237.842651,519.324036 1236.022827,519.324097 1234.203003,519.324097 
	C1213.373535,519.324097 1192.535278,518.975342 1171.718506,519.489258 
	C1162.933105,519.706177 1155.440796,518.519531 1149.432739,511.515350 
	C1147.193481,508.904785 1144.087280,507.026825 1141.331787,504.871887 
	C1120.669434,488.713593 1098.486816,475.521973 1072.452637,470.004333 
	C1034.587158,461.979218 996.732971,462.263367 958.114563,470.639191 
z"/>
<path fill="#FCFBFC" opacity="1.000000" stroke="none" 
	d="
M958.513672,470.509521 
	C996.732971,462.263367 1034.587158,461.979218 1072.452637,470.004333 
	C1098.486816,475.521973 1120.669434,488.713593 1141.331787,504.871887 
	C1144.087280,507.026825 1147.193481,508.904785 1149.432739,511.515350 
	C1155.440796,518.519531 1162.933105,519.706177 1171.718506,519.489258 
	C1192.535278,518.975342 1213.373535,519.324097 1234.203003,519.324097 
	C1236.022827,519.324097 1237.842651,519.324036 1240.103516,519.324036 
	C1240.103516,560.519958 1240.103516,601.383850 1240.103516,642.820862 
	C1237.995605,642.820862 1236.049561,642.820862 1234.103516,642.820862 
	C1200.609741,642.820862 1167.115356,642.737854 1133.622681,642.923462 
	C1129.326538,642.947266 1126.708740,641.717957 1124.195190,638.180908 
	C1114.136719,624.026184 1103.348877,610.434570 1089.133667,600.117249 
	C1066.909546,583.987122 1041.537964,578.405884 1014.610718,578.777344 
	C967.414856,579.428284 932.256653,602.149170 905.746948,639.623535 
	C858.419617,706.526123 860.992310,806.841736 911.993469,870.584412 
	C941.040466,906.888000 978.940613,925.399536 1025.989258,921.819031 
	C1061.175903,919.141296 1089.451172,902.186584 1112.652832,876.304871 
	C1117.628784,870.754211 1121.982422,864.555359 1125.991455,858.253479 
	C1129.989868,851.968262 1133.195435,845.178711 1136.997681,838.149963 
	C1175.552979,848.942017 1214.402466,859.816467 1253.635498,870.798279 
	C1253.188110,872.530945 1252.937500,873.932556 1252.468506,875.256714 
	C1226.654419,948.147034 1176.709595,997.263855 1104.230347,1022.823425 
	C982.659302,1065.695068 851.799500,1015.494202 787.987488,902.267090 
	C755.422913,844.485046 742.373352,782.391235 750.013672,716.553223 
	C760.216064,628.637695 800.470642,557.898926 873.949768,507.359436 
	C899.523010,489.769928 927.705139,477.482941 958.513672,470.509521 
z"/>
</svg>